<?xml version="1.0" encoding="UTF-8" standalone="no"?>
<svg
   xmlns:dc="http://purl.org/dc/elements/1.1/"
   xmlns:cc="http://creativecommons.org/ns#"
   xmlns:rdf="http://www.w3.org/1999/02/22-rdf-syntax-ns#"
   xmlns:svg="http://www.w3.org/2000/svg"
   xmlns="http://www.w3.org/2000/svg"
   xmlns:sodipodi="http://sodipodi.sourceforge.net/DTD/sodipodi-0.dtd"
   xmlns:inkscape="http://www.inkscape.org/namespaces/inkscape"
   width="229.97391mm"
   height="143.34869mm"
   viewBox="0 0 229.97391 143.34869"
   version="1.1"
   id="svg8"
   inkscape:version="1.0.1 (3bc2e813f5, 2020-09-07)"
   sodipodi:docname="logo.svg">
  <defs
     id="defs2" />
  <sodipodi:namedview
     id="base"
     pagecolor="#ffffff"
     bordercolor="#666666"
     borderopacity="1.0"
     inkscape:pageopacity="0.0"
     inkscape:pageshadow="2"
     inkscape:zoom="1.7639778"
     inkscape:cx="458.07176"
     inkscape:cy="243.61715"
     inkscape:document-units="mm"
     inkscape:current-layer="layer1"
     inkscape:document-rotation="0"
     showgrid="false"
     inkscape:window-width="1366"
     inkscape:window-height="701"
     inkscape:window-x="0"
     inkscape:window-y="0"
     inkscape:window-maximized="1" />
  <metadata
     id="metadata5">
    <rdf:RDF>
      <cc:Work
         rdf:about="">
        <dc:format>image/svg+xml</dc:format>
        <dc:type
           rdf:resource="http://purl.org/dc/dcmitype/StillImage" />
        <dc:title />
      </cc:Work>
    </rdf:RDF>
  </metadata>
  <g
     inkscape:label="Capa 1"
     inkscape:groupmode="layer"
     id="layer1"
     transform="translate(-299.15797,-86.275945)">
    <g
       id="g837"
       transform="matrix(0.26458333,0,0,0.26458333,304.9788,121.06577)">
      <g
         id="g835">
        <path
           d="M 413.103,224.804 H 385.03 l -73.891,-349.283 c -0.847,-4.233 -4.603,-7.149 -8.943,-7.005 -4.314,0.14 -7.893,3.421 -8.463,7.699 L 207.229,275.016 145.503,3.7239982 c -0.902,-3.94699996 -4.374,-6.769 -8.422,-6.853 -3.962,-0.04 -7.635,2.59900004 -8.699,6.506 L 82.503,171.599 48.034,81.806998 c -1.311,-3.408 -4.586,-5.831 -8.239,-5.831 h -52.966998 c -4.875,0 -8.828,3.953 -8.828,8.828 0,4.875 3.953,8.828 8.828,8.828 H 33.731 L 75.692,202.905 c 1.37,3.562 4.876,5.914 8.684,5.735 3.811,-0.193 7.068,-2.769 8.071,-6.451 L 136.142,41.996998 198.911,316.624 c 0.921,4.029 4.504,6.866 8.601,6.866 0.137,0 0.274,-0.001 0.41,-0.008 4.266,-0.195 7.779,-3.416 8.344,-7.649 L 302.224,-86.851003 369.136,235.536 c 0.825,4.126 4.448,6.924 8.656,6.924 h 35.31 c 4.875,0 8.828,-3.953 8.828,-8.828 10e-4,-4.876 -3.952,-8.828 -8.827,-8.828 z"
           id="path833"
           sodipodi:nodetypes="sccccccccccssssccccccsccccsscs" />
      </g>
    </g>
    <g
       id="g843"
       transform="matrix(0.26458333,0,0,0.26458333,309.3636,121.06577)">
      <g
         id="g841">
        <path
           d="m 501.379,224.804 h -44.138 c -4.875,0 -8.828,3.953 -8.828,8.828 0,4.875 3.953,8.828 8.828,8.828 h 44.138 c 4.875,0 8.828,-3.953 8.828,-8.828 0,-4.876 -3.953,-8.828 -8.828,-8.828 z"
           id="path839"
           sodipodi:nodetypes="sssssss" />
      </g>
    </g>
    <g
       id="g851"
       transform="matrix(0.26458333,0,0,0.26458333,304.9788,121.06577)" />
    <g
       id="g853"
       transform="matrix(0.26458333,0,0,0.26458333,304.9788,121.06577)" />
    <g
       id="g855"
       transform="matrix(0.26458333,0,0,0.26458333,304.9788,121.06577)" />
    <g
       id="g857"
       transform="matrix(0.26458333,0,0,0.26458333,304.9788,121.06577)" />
    <g
       id="g859"
       transform="matrix(0.26458333,0,0,0.26458333,304.9788,121.06577)" />
    <g
       id="g861"
       transform="matrix(0.26458333,0,0,0.26458333,304.9788,121.06577)" />
    <g
       id="g863"
       transform="matrix(0.26458333,0,0,0.26458333,304.9788,121.06577)" />
    <g
       id="g865"
       transform="matrix(0.26458333,0,0,0.26458333,304.9788,121.06577)" />
    <g
       id="g867"
       transform="matrix(0.26458333,0,0,0.26458333,304.9788,121.06577)" />
    <g
       id="g869"
       transform="matrix(0.26458333,0,0,0.26458333,304.9788,121.06577)" />
    <g
       id="g871"
       transform="matrix(0.26458333,0,0,0.26458333,304.9788,121.06577)" />
    <g
       id="g873"
       transform="matrix(0.26458333,0,0,0.26458333,304.9788,121.06577)" />
    <g
       id="g875"
       transform="matrix(0.26458333,0,0,0.26458333,304.9788,121.06577)" />
    <g
       id="g877"
       transform="matrix(0.26458333,0,0,0.26458333,304.9788,121.06577)" />
    <g
       id="g879"
       transform="matrix(0.26458333,0,0,0.26458333,304.9788,121.06577)" />
    <g
       aria-label="nalitic"
       id="text916"
       style="font-style:normal;font-weight:normal;font-size:43.2202px;line-height:1.25;font-family:sans-serif;fill:#000000;fill-opacity:1;stroke:none;stroke-width:1.08051">
      <path
         d="m 425.77038,154.59845 q 3.06863,0 4.75422,1.29661 1.68559,1.25339 2.33389,3.4144 0.69152,2.11779 0.69152,4.75422 v 11.58301 q 0,0.95085 -0.6483,1.59915 -0.60508,0.60508 -1.51271,0.60508 -0.95084,0 -1.55593,-0.60508 -0.60508,-0.6483 -0.60508,-1.59915 V 164.1069 q 0,-1.55593 -0.4322,-2.76609 -0.4322,-1.25339 -1.51271,-1.98813 -1.03728,-0.77797 -2.93897,-0.77797 -1.77203,0 -3.11186,0.77797 -1.33982,0.73474 -2.11779,1.98813 -0.73474,1.21016 -0.73474,2.76609 v 11.53979 q 0,0.95085 -0.6483,1.59915 -0.60508,0.60508 -1.51271,0.60508 -0.95084,0 -1.55593,-0.60508 -0.60508,-0.6483 -0.60508,-1.59915 v -18.32536 q 0,-0.95085 0.60508,-1.55593 0.60509,-0.6483 1.55593,-0.6483 0.90763,0 1.51271,0.6483 0.6483,0.60508 0.6483,1.55593 v 2.42033 l -0.77796,0.4322 q 0.30254,-0.95084 1.03728,-1.90169 0.77797,-0.99406 1.85847,-1.81525 1.08051,-0.8644 2.42033,-1.33982 1.33983,-0.51865 2.85254,-0.51865 z"
         style="font-style:normal;font-variant:normal;font-weight:600;font-stretch:normal;font-family:Quicksand;-inkscape-font-specification:'Quicksand Semi-Bold';stroke-width:1.08051"
         id="path1730" />
      <path
         d="m 458.01257,154.77134 q 0.90762,0 1.51271,0.6483 0.6483,0.60508 0.6483,1.55593 v 18.67112 q 0,0.95085 -0.6483,1.59915 -0.60509,0.60508 -1.51271,0.60508 -0.95085,0 -1.55593,-0.60508 -0.60508,-0.6483 -0.60508,-1.59915 v -3.11185 l 0.8644,0.12966 q 0,0.77796 -0.6483,1.72881 -0.60508,0.95084 -1.68559,1.85846 -1.0805,0.86441 -2.54999,1.46949 -1.46949,0.56186 -3.15507,0.56186 -2.9822,0 -5.35931,-1.5127 -2.37711,-1.55593 -3.76016,-4.23558 -1.38304,-2.67966 -1.38304,-6.09405 0,-3.50084 1.38304,-6.13727 1.38305,-2.67965 3.71694,-4.19236 2.37711,-1.51271 5.27286,-1.51271 1.85847,0 3.4144,0.60509 1.59915,0.60508 2.76609,1.55592 1.16695,0.95085 1.81525,2.03135 0.6483,1.03729 0.6483,1.98813 l -1.33982,0.12966 v -3.93303 q 0,-0.90763 0.60508,-1.55593 0.60508,-0.6483 1.55593,-0.6483 z m -8.81692,19.53553 q 2.03135,0 3.54405,-1.03729 1.55593,-1.03728 2.42034,-2.80931 0.8644,-1.81525 0.8644,-4.01948 0,-2.24745 -0.8644,-4.01948 -0.86441,-1.77203 -2.42034,-2.80931 -1.5127,-1.03729 -3.54405,-1.03729 -1.98813,0 -3.54406,1.03729 -1.55593,1.03728 -2.42033,2.80931 -0.8644,1.77203 -0.8644,4.01948 0,2.20423 0.8644,4.01948 0.8644,1.77203 2.37711,2.80931 1.55593,1.03729 3.58728,1.03729 z"
         style="font-style:normal;font-variant:normal;font-weight:600;font-stretch:normal;font-family:Quicksand;-inkscape-font-specification:'Quicksand Semi-Bold';stroke-width:1.08051"
         id="path1732" />
      <path
         d="m 470.84893,175.64669 q 0,0.95085 -0.6483,1.59915 -0.60508,0.60508 -1.51271,0.60508 -0.90762,0 -1.55592,-0.60508 -0.60509,-0.6483 -0.60509,-1.59915 V 148.0722 q 0,-0.95084 0.64831,-1.55592 0.6483,-0.64831 1.55592,-0.64831 0.95085,0 1.51271,0.64831 0.60508,0.60508 0.60508,1.55592 z"
         style="font-style:normal;font-variant:normal;font-weight:600;font-stretch:normal;font-family:Quicksand;-inkscape-font-specification:'Quicksand Semi-Bold';stroke-width:1.08051"
         id="path1734" />
      <path
         d="m 481.35144,175.64669 q 0,0.95085 -0.60508,1.59915 -0.60508,0.60508 -1.55593,0.60508 -0.90762,0 -1.55593,-0.60508 -0.60508,-0.6483 -0.60508,-1.59915 v -18.49824 q 0,-0.95085 0.60508,-1.55593 0.64831,-0.6483 1.55593,-0.6483 0.95085,0 1.55593,0.6483 0.60508,0.60508 0.60508,1.55593 z m -2.20423,-23.55501 q -1.25338,0 -1.81525,-0.4322 -0.56186,-0.47542 -0.56186,-1.55593 v -0.69152 q 0,-1.0805 0.60508,-1.51271 0.60509,-0.4322 1.81525,-0.4322 1.29661,0 1.85847,0.47542 0.56186,0.43221 0.56186,1.46949 v 0.69152 q 0,1.12373 -0.60508,1.55593 -0.56186,0.4322 -1.85847,0.4322 z"
         style="font-style:normal;font-variant:normal;font-weight:600;font-stretch:normal;font-family:Quicksand;-inkscape-font-specification:'Quicksand Semi-Bold';stroke-width:1.08051"
         id="path1736" />
      <path
         d="m 486.88355,155.37642 h 10.15674 q 0.86441,0 1.42627,0.60508 0.60508,0.56186 0.60508,1.42627 0,0.82118 -0.60508,1.38304 -0.56186,0.56187 -1.42627,0.56187 h -10.15674 q -0.86441,0 -1.46949,-0.56187 -0.56186,-0.60508 -0.56186,-1.42626 0,-0.86441 0.56186,-1.42627 0.60508,-0.56186 1.46949,-0.56186 z m 4.53812,-5.61863 q 0.95084,0 1.55593,0.6483 0.60508,0.60509 0.60508,1.55593 v 20.05417 q 0,0.77797 0.25932,1.25339 0.25932,0.47542 0.69152,0.6483 0.47543,0.17288 0.95085,0.17288 0.47542,0 0.82118,-0.17288 0.38898,-0.17288 0.90763,-0.17288 0.51864,0 0.95084,0.47542 0.4322,0.47543 0.4322,1.29661 0,1.03729 -1.12372,1.68559 -1.12373,0.6483 -2.42033,0.6483 -0.73475,0 -1.72881,-0.12966 -0.99407,-0.12966 -1.94491,-0.6483 -0.90763,-0.51864 -1.51271,-1.64237 -0.60508,-1.16694 -0.60508,-3.24151 v -20.22706 q 0,-0.95084 0.60508,-1.55593 0.6483,-0.6483 1.55593,-0.6483 z"
         style="font-style:normal;font-variant:normal;font-weight:600;font-stretch:normal;font-family:Quicksand;-inkscape-font-specification:'Quicksand Semi-Bold';stroke-width:1.08051"
         id="path1738" />
      <path
         d="m 507.93177,175.64669 q 0,0.95085 -0.60508,1.59915 -0.60508,0.60508 -1.55593,0.60508 -0.90762,0 -1.55593,-0.60508 -0.60508,-0.6483 -0.60508,-1.59915 v -18.49824 q 0,-0.95085 0.60508,-1.55593 0.64831,-0.6483 1.55593,-0.6483 0.95085,0 1.55593,0.6483 0.60508,0.60508 0.60508,1.55593 z m -2.20423,-23.55501 q -1.25338,0 -1.81525,-0.4322 -0.56186,-0.47542 -0.56186,-1.55593 v -0.69152 q 0,-1.0805 0.60508,-1.51271 0.60509,-0.4322 1.81525,-0.4322 1.29661,0 1.85847,0.47542 0.56186,0.43221 0.56186,1.46949 v 0.69152 q 0,1.12373 -0.60508,1.55593 -0.56186,0.4322 -1.85847,0.4322 z"
         style="font-style:normal;font-variant:normal;font-weight:600;font-stretch:normal;font-family:Quicksand;-inkscape-font-specification:'Quicksand Semi-Bold';stroke-width:1.08051"
         id="path1740" />
      <path
         d="m 523.66384,154.59845 q 2.3339,0 4.10592,0.51865 1.81525,0.47542 2.85254,1.38304 1.03728,0.86441 1.03728,2.03135 0,0.73475 -0.47542,1.38305 -0.4322,0.60508 -1.25339,0.60508 -0.6483,0 -1.0805,-0.2161 -0.38898,-0.2161 -0.73474,-0.51864 -0.34577,-0.30254 -0.86441,-0.60508 -0.47542,-0.25933 -1.42627,-0.43221 -0.90762,-0.17288 -1.64236,-0.17288 -2.29067,0 -3.97626,1.03729 -1.64237,1.03728 -2.59321,2.80931 -0.90763,1.77203 -0.90763,4.01948 0,2.24745 0.90763,4.01948 0.95084,1.77203 2.54999,2.80931 1.64237,1.03729 3.80338,1.03729 1.2966,0 2.11779,-0.17289 0.8644,-0.2161 1.42626,-0.51864 0.69153,-0.38898 1.12373,-0.77796 0.4322,-0.4322 1.25338,-0.4322 0.95085,0 1.42627,0.60508 0.51864,0.56186 0.51864,1.42627 0,0.95084 -1.16694,1.85846 -1.12373,0.86441 -3.02542,1.42627 -1.90169,0.56186 -4.19236,0.56186 -3.37117,0 -5.87794,-1.55592 -2.46355,-1.55593 -3.8466,-4.23558 -1.33983,-2.67966 -1.33983,-6.05083 0,-3.4144 1.42627,-6.05083 1.42627,-2.67965 3.97626,-4.23558 2.54999,-1.55593 5.87794,-1.55593 z"
         style="font-style:normal;font-variant:normal;font-weight:600;font-stretch:normal;font-family:Quicksand;-inkscape-font-specification:'Quicksand Semi-Bold';stroke-width:1.08051"
         id="path1742" />
    </g>
    <g
       aria-label="HRV"
       id="text920"
       style="font-style:normal;font-weight:normal;font-size:60.5216px;line-height:1.25;font-family:sans-serif;fill:#000000;fill-opacity:1;stroke:none;stroke-width:1.51305">
      <path
         d="m 414.6251,92.471444 q 1.21043,0 2.11825,0.907824 0.96835,0.847302 0.96835,2.178777 v 36.191915 q -0.0605,1.33148 -1.02887,2.2393 -0.90782,0.8473 -2.17878,0.8473 -1.39199,0 -2.29982,-0.8473 -0.8473,-0.90782 -0.8473,-2.2393 V 95.558045 q 0,-1.331475 0.90782,-2.178777 0.90783,-0.907824 2.36035,-0.907824 z m 27.29524,0 q 1.45252,0 2.29982,0.907824 0.8473,0.847302 0.8473,2.178777 v 36.191915 q 0,1.33148 -0.90782,2.2393 -0.8473,0.8473 -2.29982,0.8473 -1.27096,0 -2.17878,-0.8473 -0.90782,-0.90782 -0.90782,-2.2393 V 95.558045 q 0,-1.331475 0.90782,-2.178777 0.96834,-0.907824 2.2393,-0.907824 z m -27.53733,18.035436 h 27.59785 l -0.0605,5.81007 h -27.59785 z"
         style="font-style:normal;font-variant:normal;font-weight:600;font-stretch:normal;font-family:Quicksand;-inkscape-font-specification:'Quicksand Semi-Bold';stroke-width:1.51305"
         id="path1745" />
      <path
         d="m 458.50325,134.83656 q -1.45252,0 -2.54191,-0.8473 -1.08939,-0.90782 -1.08939,-2.2393 V 95.558045 q 0,-1.331475 0.90783,-2.178777 0.90782,-0.907824 2.17877,-0.907824 h 17.0671 q 3.26816,0 5.99163,1.634083 2.72348,1.573562 4.35756,4.418077 1.6946,2.783996 1.6946,6.415286 0,2.42087 -0.96834,4.66017 -0.96835,2.17877 -2.60243,3.87338 -1.63408,1.6946 -3.69182,2.54191 l -0.66574,-1.14991 q 1.87617,0.66573 3.26817,1.93669 1.392,1.21043 2.17878,2.90503 0.8473,1.63409 0.90782,3.75234 0.18157,1.87617 0.30261,3.14713 0.18156,1.21043 0.48417,1.99721 0.30261,0.78678 1.08939,1.21043 1.08939,0.60522 1.33148,1.81565 0.3026,1.21043 -0.48418,2.17878 -0.54469,0.72626 -1.39199,0.96834 -0.78678,0.18157 -1.63409,0.0605 -0.8473,-0.18156 -1.45251,-0.48417 -0.96835,-0.60522 -1.99722,-1.6946 -0.96834,-1.14991 -1.57356,-3.14713 -0.60521,-1.99721 -0.60521,-5.26538 0,-1.51304 -0.48418,-2.60243 -0.48417,-1.08938 -1.33147,-1.75512 -0.8473,-0.72626 -1.99722,-1.02887 -1.14991,-0.36313 -2.5419,-0.36313 h -12.83058 l 0.8473,-1.21043 v 14.46466 q 0,1.33148 -0.72626,2.2393 -0.72626,0.8473 -1.99721,0.8473 z m 1.93669,-21.60621 h 14.46466 q 1.392,-0.0605 2.66295,-1.08939 1.33148,-1.08939 2.11826,-2.90503 0.8473,-1.81565 0.8473,-4.11547 0,-2.90504 -1.75513,-4.84173 -1.6946,-1.997213 -4.05494,-1.997213 h -14.16206 l 0.66574,-1.573561 v 17.793354 z"
         style="font-style:normal;font-variant:normal;font-weight:600;font-stretch:normal;font-family:Quicksand;-inkscape-font-specification:'Quicksand Semi-Bold';stroke-width:1.51305"
         id="path1747" />
      <path
         d="m 526.04526,92.350401 q 1.27095,0 2.17878,0.847302 0.90782,0.847303 0.90782,2.057734 0,0.665738 -0.30261,1.391997 l -15.31196,36.191916 q -0.48418,1.02887 -1.33148,1.51304 -0.78678,0.48417 -1.63408,0.48417 -0.8473,-0.0605 -1.63408,-0.54469 -0.72626,-0.48417 -1.14992,-1.392 L 492.45577,96.647434 q -0.12104,-0.302608 -0.18156,-0.605216 -0.0605,-0.363129 -0.0605,-0.726259 0,-1.391997 1.02887,-2.178777 1.02887,-0.786781 1.99721,-0.786781 1.9367,0 2.84452,1.997213 l 13.85945,32.863226 h -1.75513 l 13.07266,-32.923748 q 0.84731,-1.936691 2.784,-1.936691 z"
         style="font-style:normal;font-variant:normal;font-weight:600;font-stretch:normal;font-family:Quicksand;-inkscape-font-specification:'Quicksand Semi-Bold';stroke-width:1.51305"
         id="path1749" />
    </g>
    <g
       id="g972"
       transform="matrix(0.26458333,0,0,0.26458333,337.10503,121.06577)">
      <g
         id="g970">
        <path
           d="m 501.379,224.804 h -44.138 c -4.875,0 -8.828,3.953 -8.828,8.828 0,4.875 3.953,8.828 8.828,8.828 h 44.138 c 4.875,0 8.828,-3.953 8.828,-8.828 0,-4.876 -3.953,-8.828 -8.828,-8.828 z"
           id="path968"
           sodipodi:nodetypes="sssssss" />
      </g>
    </g>
    <g
       id="g978"
       transform="matrix(0.26458333,0,0,0.26458333,364.84646,121.06577)">
      <g
         id="g976">
        <path
           d="m 501.379,224.804 h -44.138 c -4.875,0 -8.828,3.953 -8.828,8.828 0,4.875 3.953,8.828 8.828,8.828 h 44.138 c 4.875,0 8.828,-3.953 8.828,-8.828 0,-4.876 -3.953,-8.828 -8.828,-8.828 z"
           id="path974"
           sodipodi:nodetypes="sssssss" />
      </g>
    </g>
    <g
       id="g984"
       transform="matrix(0.26458333,0,0,0.26458333,392.58788,121.06577)">
      <g
         id="g982">
        <path
           d="m 501.379,224.804 h -44.138 c -4.875,0 -8.828,3.953 -8.828,8.828 0,4.875 3.953,8.828 8.828,8.828 h 44.138 c 4.875,0 8.828,-3.953 8.828,-8.828 0,-4.876 -3.953,-8.828 -8.828,-8.828 z"
           id="path980"
           sodipodi:nodetypes="sssssss" />
      </g>
    </g>
    <g
       aria-label="SOFTWARE PARA EL ANÃLISIS DE LA VARIABILIDAD DE LA FRECUENCIA CARDIACA"
       transform="matrix(1.0483806,0,0,1.0483806,-81.017705,-46.039029)"
       id="text988"
       style="font-style:normal;font-weight:normal;font-size:10.5833px;line-height:1.25;font-family:sans-serif;text-align:end;text-anchor:end;white-space:pre;inline-size:172.29;fill:#000000;fill-opacity:1;stroke:none;stroke-width:0.264583">
      <path
         d="m 486.65053,232.82027 q -1.2764,-0.3669 -1.86035,-0.89917 -0.57877,-0.53743 -0.57877,-1.32291 0,-0.88883 0.70796,-1.46761 0.71314,-0.58394 1.85001,-0.58394 0.77515,0 1.37976,0.29972 0.60978,0.29972 0.94051,0.82682 0.33589,0.5271 0.33589,1.15238 h -0.99735 q 0,-0.68212 -0.43408,-1.0697 -0.43408,-0.39274 -1.22473,-0.39274 -0.7338,0 -1.14721,0.32557 -0.40824,0.32039 -0.40824,0.89399 0,0.45992 0.38757,0.78032 0.39274,0.31522 1.32808,0.57877 0.94051,0.26355 1.46761,0.58394 0.53226,0.31523 0.78548,0.73897 0.25838,0.42375 0.25838,0.99736 0,0.91467 -0.71313,1.4676 -0.71314,0.54777 -1.90686,0.54777 -0.77514,0 -1.44693,-0.29456 -0.6718,-0.29972 -1.0387,-0.81648 -0.36173,-0.51676 -0.36173,-1.17305 h 0.99735 q 0,0.68213 0.50126,1.08003 0.50643,0.39274 1.34875,0.39274 0.78548,0 1.20406,-0.32039 0.41858,-0.32039 0.41858,-0.87333 0,-0.55294 -0.38758,-0.85266 -0.38757,-0.30489 -1.40559,-0.59944 z"
         style="font-style:normal;font-variant:normal;font-weight:normal;font-stretch:normal;font-family:Roboto;-inkscape-font-specification:Roboto;text-align:end;text-anchor:end;stroke-width:0.264583"
         id="path885" />
      <path
         d="m 496.50003,232.6549 q 0,1.10588 -0.37207,1.9327 -0.37207,0.82165 -1.0542,1.25573 -0.68213,0.43408 -1.59163,0.43408 -0.88883,0 -1.57612,-0.43408 -0.6873,-0.43925 -1.0697,-1.2454 -0.37724,-0.81132 -0.38758,-1.87585 v -0.5426 q 0,-1.0852 0.37724,-1.91719 0.37724,-0.83199 1.06453,-1.27123 0.69246,-0.44442 1.5813,-0.44442 0.90433,0 1.59163,0.43925 0.69246,0.43408 1.06453,1.26607 0.37207,0.82682 0.37207,1.92752 z m -0.98702,-0.48575 q 0,-1.33842 -0.53743,-2.05155 -0.53744,-0.7183 -1.50378,-0.7183 -0.94051,0 -1.48311,0.7183 -0.53744,0.71313 -0.55294,1.98437 v 0.55293 q 0,1.29708 0.5426,2.04122 0.54777,0.73897 1.50378,0.73897 0.96118,0 1.48828,-0.69763 0.5271,-0.7028 0.5426,-2.01021 z"
         style="font-style:normal;font-variant:normal;font-weight:normal;font-stretch:normal;font-family:Roboto;-inkscape-font-specification:Roboto;text-align:end;text-anchor:end;stroke-width:0.264583"
         id="path887" />
      <path
         d="m 502.13791,232.85127 h -3.15742 v 3.32279 h -0.99219 v -7.52407 h 4.6612 v 0.81649 h -3.66901 v 2.57348 h 3.15742 z"
         style="font-style:normal;font-variant:normal;font-weight:normal;font-stretch:normal;font-family:Roboto;-inkscape-font-specification:Roboto;text-align:end;text-anchor:end;stroke-width:0.264583"
         id="path889" />
      <path
         d="m 509.14004,229.46648 h -2.41845 v 6.70758 h -0.98701 v -6.70758 h -2.41329 v -0.81649 h 5.81875 z"
         style="font-style:normal;font-variant:normal;font-weight:normal;font-stretch:normal;font-family:Roboto;-inkscape-font-specification:Roboto;text-align:end;text-anchor:end;stroke-width:0.264583"
         id="path891" />
      <path
         d="m 511.9564,233.80212 0.14469,0.99218 0.21187,-0.894 1.48828,-5.25031 h 0.83716 l 1.4521,5.25031 0.20671,0.9095 0.16019,-1.01285 1.16789,-5.14696 h 0.99735 l -1.82418,7.52407 h -0.90433 l -1.55029,-5.48286 -0.11885,-0.5736 -0.11886,0.5736 -1.60713,5.48286 h -0.90434 l -1.819,-7.52407 h 0.99218 z"
         style="font-style:normal;font-variant:normal;font-weight:normal;font-stretch:normal;font-family:Roboto;-inkscape-font-specification:Roboto;text-align:end;text-anchor:end;stroke-width:0.264583"
         id="path893" />
      <path
         d="m 523.65591,234.21036 h -3.15226 l -0.70796,1.9637 h -1.02319 l 2.8732,-7.52407 h 0.86816 l 2.87837,7.52407 h -1.01802 z m -2.85253,-0.81649 h 2.55797 l -1.28157,-3.51915 z"
         style="font-style:normal;font-variant:normal;font-weight:normal;font-stretch:normal;font-family:Roboto;-inkscape-font-specification:Roboto;text-align:end;text-anchor:end;stroke-width:0.264583"
         id="path895" />
      <path
         d="m 529.1646,233.13032 h -1.76733 v 3.04374 h -0.99735 v -7.52407 h 2.49079 q 1.27124,0 1.95336,0.57878 0.6873,0.57877 0.6873,1.68464 0,0.7028 -0.38241,1.22473 -0.37723,0.52193 -1.05419,0.78031 l 1.76733,3.1936 v 0.062 h -1.06453 z m -1.76733,-0.81131 h 1.52445 q 0.73897,0 1.17305,-0.38241 0.43925,-0.3824 0.43925,-1.02319 0,-0.69763 -0.41858,-1.0697 -0.41341,-0.37206 -1.19889,-0.37723 h -1.51928 z"
         style="font-style:normal;font-variant:normal;font-weight:normal;font-stretch:normal;font-family:Roboto;-inkscape-font-specification:Roboto;text-align:end;text-anchor:end;stroke-width:0.264583"
         id="path897" />
      <path
         d="m 537.17442,232.69624 h -3.26078 v 2.6665 h 3.78787 v 0.81132 h -4.78005 v -7.52407 h 4.72838 v 0.81649 h -3.7362 v 2.41845 h 3.26078 z"
         style="font-style:normal;font-variant:normal;font-weight:normal;font-stretch:normal;font-family:Roboto;-inkscape-font-specification:Roboto;text-align:end;text-anchor:end;stroke-width:0.264583"
         id="path899" />
      <path
         d="m 542.54875,233.22851 v 2.94555 h -0.99218 v -7.52407 h 2.77501 q 1.23506,0 1.93269,0.63045 0.7028,0.63045 0.7028,1.66915 0,1.09553 -0.68729,1.68981 -0.68213,0.58911 -1.95853,0.58911 z m 0,-0.81132 h 1.78283 q 0.79582,0 1.21956,-0.37207 0.42375,-0.37723 0.42375,-1.0852 0,-0.67179 -0.42375,-1.07486 -0.42374,-0.40308 -1.16272,-0.41858 h -1.83967 z"
         style="font-style:normal;font-variant:normal;font-weight:normal;font-stretch:normal;font-family:Roboto;-inkscape-font-specification:Roboto;text-align:end;text-anchor:end;stroke-width:0.264583"
         id="path901" />
      <path
         d="m 551.67478,234.21036 h -3.15226 l -0.70796,1.9637 h -1.02319 l 2.8732,-7.52407 h 0.86816 l 2.87837,7.52407 h -1.01802 z m -2.85253,-0.81649 h 2.55797 l -1.28157,-3.51915 z"
         style="font-style:normal;font-variant:normal;font-weight:normal;font-stretch:normal;font-family:Roboto;-inkscape-font-specification:Roboto;text-align:end;text-anchor:end;stroke-width:0.264583"
         id="path903" />
      <path
         d="m 557.18346,233.13032 h -1.76732 v 3.04374 h -0.99736 v -7.52407 h 2.4908 q 1.27124,0 1.95336,0.57878 0.6873,0.57877 0.6873,1.68464 0,0.7028 -0.38241,1.22473 -0.37723,0.52193 -1.05419,0.78031 l 1.76732,3.1936 v 0.062 h -1.06453 z m -1.76732,-0.81131 h 1.52445 q 0.73897,0 1.17305,-0.38241 0.43924,-0.3824 0.43924,-1.02319 0,-0.69763 -0.41857,-1.0697 -0.41341,-0.37206 -1.19889,-0.37723 h -1.51928 z"
         style="font-style:normal;font-variant:normal;font-weight:normal;font-stretch:normal;font-family:Roboto;-inkscape-font-specification:Roboto;text-align:end;text-anchor:end;stroke-width:0.264583"
         id="path905" />
      <path
         d="m 565.0951,234.21036 h -3.15225 l -0.70796,1.9637 h -1.02319 l 2.8732,-7.52407 h 0.86816 l 2.87837,7.52407 h -1.01803 z m -2.85253,-0.81649 h 2.55798 l -1.28157,-3.51915 z"
         style="font-style:normal;font-variant:normal;font-weight:normal;font-stretch:normal;font-family:Roboto;-inkscape-font-specification:Roboto;text-align:end;text-anchor:end;stroke-width:0.264583"
         id="path907" />
      <path
         d="m 574.71722,232.69624 h -3.26077 v 2.6665 h 3.78787 v 0.81132 h -4.78006 v -7.52407 h 4.72838 v 0.81649 h -3.73619 v 2.41845 h 3.26077 z"
         style="font-style:normal;font-variant:normal;font-weight:normal;font-stretch:normal;font-family:Roboto;-inkscape-font-specification:Roboto;text-align:end;text-anchor:end;stroke-width:0.264583"
         id="path909" />
      <path
         d="m 577.47674,235.36274 h 3.56566 v 0.81132 h -4.56301 v -7.52407 h 0.99735 z"
         style="font-style:normal;font-variant:normal;font-weight:normal;font-stretch:normal;font-family:Roboto;-inkscape-font-specification:Roboto;text-align:end;text-anchor:end;stroke-width:0.264583"
         id="path911" />
      <path
         d="m 439.00501,247.54283 h -3.15225 l -0.70797,1.9637 h -1.02319 l 2.8732,-7.52406 h 0.86816 l 2.87837,7.52406 h -1.01802 z m -2.85253,-0.81648 h 2.55798 l -1.28158,-3.51916 z"
         style="font-style:normal;font-variant:normal;font-weight:normal;font-stretch:normal;font-family:Roboto;-inkscape-font-specification:Roboto;text-align:end;text-anchor:end;stroke-width:0.264583"
         id="path913" />
      <path
         d="m 447.53676,249.50653 h -0.99735 l -3.78787,-5.79808 v 5.79808 h -0.99735 v -7.52406 h 0.99735 l 3.79821,5.82391 v -5.82391 h 0.98701 z"
         style="font-style:normal;font-variant:normal;font-weight:normal;font-stretch:normal;font-family:Roboto;-inkscape-font-specification:Roboto;text-align:end;text-anchor:end;stroke-width:0.264583"
         id="path915" />
      <path
         d="m 453.54671,247.54283 h -3.15225 l -0.70796,1.9637 h -1.02319 l 2.8732,-7.52406 h 0.86816 l 2.87837,7.52406 h -1.01803 z m -2.85253,-0.81648 h 2.55798 l -1.28157,-3.51916 z m 1.76733,-6.75926 h 1.15755 l -1.38492,1.51928 h -0.76998 z"
         style="font-style:normal;font-variant:normal;font-weight:normal;font-stretch:normal;font-family:Roboto;-inkscape-font-specification:Roboto;text-align:end;text-anchor:end;stroke-width:0.264583"
         id="path917" />
      <path
         d="m 457.29324,248.69521 h 3.56566 v 0.81132 h -4.56301 v -7.52406 h 0.99735 z"
         style="font-style:normal;font-variant:normal;font-weight:normal;font-stretch:normal;font-family:Roboto;-inkscape-font-specification:Roboto;text-align:end;text-anchor:end;stroke-width:0.264583"
         id="path919" />
      <path
         d="m 463.05514,249.50653 h -0.99218 v -7.52406 h 0.99218 z"
         style="font-style:normal;font-variant:normal;font-weight:normal;font-stretch:normal;font-family:Roboto;-inkscape-font-specification:Roboto;text-align:end;text-anchor:end;stroke-width:0.264583"
         id="path921" />
      <path
         d="m 467.08589,246.15274 q -1.2764,-0.3669 -1.86034,-0.89917 -0.57878,-0.53743 -0.57878,-1.32291 0,-0.88883 0.70797,-1.4676 0.71313,-0.58395 1.85001,-0.58395 0.77514,0 1.37976,0.29973 0.60978,0.29972 0.9405,0.82682 0.3359,0.52709 0.3359,1.15238 h -0.99735 q 0,-0.68213 -0.43408,-1.0697 -0.43408,-0.39274 -1.22473,-0.39274 -0.7338,0 -1.14721,0.32556 -0.40825,0.32039 -0.40825,0.894 0,0.45992 0.38758,0.78031 0.39274,0.31523 1.32808,0.57878 0.9405,0.26354 1.4676,0.58394 0.53227,0.31522 0.78548,0.73897 0.25838,0.42374 0.25838,0.99735 0,0.91467 -0.71313,1.46761 -0.71313,0.54776 -1.90685,0.54776 -0.77515,0 -1.44694,-0.29455 -0.67179,-0.29972 -1.03869,-0.81649 -0.36174,-0.51676 -0.36174,-1.17305 h 0.99736 q 0,0.68213 0.50125,1.08004 0.50643,0.39274 1.34876,0.39274 0.78547,0 1.20405,-0.3204 0.41858,-0.32039 0.41858,-0.87333 0,-0.55293 -0.38757,-0.85265 -0.38757,-0.30489 -1.4056,-0.59945 z"
         style="font-style:normal;font-variant:normal;font-weight:normal;font-stretch:normal;font-family:Roboto;-inkscape-font-specification:Roboto;text-align:end;text-anchor:end;stroke-width:0.264583"
         id="path923" />
      <path
         d="m 472.21218,249.50653 h -0.99219 v -7.52406 h 0.99219 z"
         style="font-style:normal;font-variant:normal;font-weight:normal;font-stretch:normal;font-family:Roboto;-inkscape-font-specification:Roboto;text-align:end;text-anchor:end;stroke-width:0.264583"
         id="path925" />
      <path
         d="m 476.24293,246.15274 q -1.27641,-0.3669 -1.86035,-0.89917 -0.57877,-0.53743 -0.57877,-1.32291 0,-0.88883 0.70796,-1.4676 0.71314,-0.58395 1.85001,-0.58395 0.77515,0 1.37976,0.29973 0.60978,0.29972 0.94051,0.82682 0.33589,0.52709 0.33589,1.15238 h -0.99735 q 0,-0.68213 -0.43408,-1.0697 -0.43408,-0.39274 -1.22473,-0.39274 -0.7338,0 -1.14721,0.32556 -0.40824,0.32039 -0.40824,0.894 0,0.45992 0.38757,0.78031 0.39274,0.31523 1.32808,0.57878 0.94051,0.26354 1.46761,0.58394 0.53226,0.31522 0.78547,0.73897 0.25839,0.42374 0.25839,0.99735 0,0.91467 -0.71314,1.46761 -0.71313,0.54776 -1.90685,0.54776 -0.77514,0 -1.44694,-0.29455 -0.67179,-0.29972 -1.03869,-0.81649 -0.36173,-0.51676 -0.36173,-1.17305 h 0.99735 q 0,0.68213 0.50126,1.08004 0.50643,0.39274 1.34875,0.39274 0.78548,0 1.20406,-0.3204 0.41857,-0.32039 0.41857,-0.87333 0,-0.55293 -0.38757,-0.85265 -0.38757,-0.30489 -1.40559,-0.59945 z"
         style="font-style:normal;font-variant:normal;font-weight:normal;font-stretch:normal;font-family:Roboto;-inkscape-font-specification:Roboto;text-align:end;text-anchor:end;stroke-width:0.264583"
         id="path927" />
      <path
         d="m 482.92467,249.50653 v -7.52406 h 2.1239 q 0.98184,0 1.73632,0.43408 0.75447,0.43408 1.16271,1.23506 0.41341,0.80098 0.41858,1.83968 v 0.48058 q 0,1.06454 -0.41341,1.86552 -0.40824,0.80098 -1.17305,1.22989 -0.75964,0.42892 -1.7725,0.43925 z m 0.99219,-6.70758 v 5.89626 h 1.04386 q 1.14721,0 1.78283,-0.71313 0.64078,-0.71313 0.64078,-2.03088 v -0.43924 q 0,-1.28158 -0.60461,-1.98954 -0.59944,-0.71313 -1.70532,-0.72347 z"
         style="font-style:normal;font-variant:normal;font-weight:normal;font-stretch:normal;font-family:Roboto;-inkscape-font-specification:Roboto;text-align:end;text-anchor:end;stroke-width:0.264583"
         id="path929" />
      <path
         d="m 494.11775,246.02872 h -3.26077 v 2.66649 h 3.78787 v 0.81132 h -4.78006 v -7.52406 h 4.72838 v 0.81648 h -3.73619 v 2.41845 h 3.26077 z"
         style="font-style:normal;font-variant:normal;font-weight:normal;font-stretch:normal;font-family:Roboto;-inkscape-font-specification:Roboto;text-align:end;text-anchor:end;stroke-width:0.264583"
         id="path931" />
      <path
         d="m 499.49725,248.69521 h 3.56566 v 0.81132 h -4.56301 v -7.52406 h 0.99735 z"
         style="font-style:normal;font-variant:normal;font-weight:normal;font-stretch:normal;font-family:Roboto;-inkscape-font-specification:Roboto;text-align:end;text-anchor:end;stroke-width:0.264583"
         id="path933" />
      <path
         d="m 508.44758,247.54283 h -3.15226 l -0.70796,1.9637 h -1.02319 l 2.8732,-7.52406 h 0.86816 l 2.87837,7.52406 h -1.01802 z m -2.85253,-0.81648 h 2.55797 l -1.28157,-3.51916 z"
         style="font-style:normal;font-variant:normal;font-weight:normal;font-stretch:normal;font-family:Roboto;-inkscape-font-specification:Roboto;text-align:end;text-anchor:end;stroke-width:0.264583"
         id="path935" />
      <path
         d="m 516.30754,248.18879 2.14973,-6.20632 h 1.08521 l -2.79052,7.52406 h -0.8785 l -2.78535,-7.52406 h 1.08003 z"
         style="font-style:normal;font-variant:normal;font-weight:normal;font-stretch:normal;font-family:Roboto;-inkscape-font-specification:Roboto;text-align:end;text-anchor:end;stroke-width:0.264583"
         id="path937" />
      <path
         d="m 524.31736,247.54283 h -3.15225 l -0.70797,1.9637 h -1.02319 l 2.8732,-7.52406 h 0.86816 l 2.87837,7.52406 h -1.01802 z m -2.85253,-0.81648 h 2.55797 l -1.28157,-3.51916 z"
         style="font-style:normal;font-variant:normal;font-weight:normal;font-stretch:normal;font-family:Roboto;-inkscape-font-specification:Roboto;text-align:end;text-anchor:end;stroke-width:0.264583"
         id="path939" />
      <path
         d="m 529.82605,246.4628 h -1.76733 v 3.04373 h -0.99735 v -7.52406 h 2.4908 q 1.27123,0 1.95336,0.57877 0.6873,0.57878 0.6873,1.68465 0,0.70279 -0.38241,1.22472 -0.37724,0.52194 -1.0542,0.78032 l 1.76733,3.19359 v 0.062 h -1.06453 z m -1.76733,-0.81132 h 1.52445 q 0.73897,0 1.17305,-0.3824 0.43925,-0.38241 0.43925,-1.02319 0,-0.69763 -0.41857,-1.0697 -0.41341,-0.37207 -1.19889,-0.37724 h -1.51929 z"
         style="font-style:normal;font-variant:normal;font-weight:normal;font-stretch:normal;font-family:Roboto;-inkscape-font-specification:Roboto;text-align:end;text-anchor:end;stroke-width:0.264583"
         id="path941" />
      <path
         d="m 534.64744,249.50653 h -0.99218 v -7.52406 h 0.99218 z"
         style="font-style:normal;font-variant:normal;font-weight:normal;font-stretch:normal;font-family:Roboto;-inkscape-font-specification:Roboto;text-align:end;text-anchor:end;stroke-width:0.264583"
         id="path943" />
      <path
         d="m 540.70907,247.54283 h -3.15225 l -0.70796,1.9637 h -1.02319 l 2.8732,-7.52406 h 0.86816 l 2.87837,7.52406 h -1.01803 z m -2.85253,-0.81648 h 2.55798 l -1.28157,-3.51916 z"
         style="font-style:normal;font-variant:normal;font-weight:normal;font-stretch:normal;font-family:Roboto;-inkscape-font-specification:Roboto;text-align:end;text-anchor:end;stroke-width:0.264583"
         id="path945" />
      <path
         d="m 543.45825,249.50653 v -7.52406 h 2.45979 q 1.22473,0 1.83967,0.50642 0.62012,0.50643 0.62012,1.49862 0,0.52709 -0.29972,0.93534 -0.29973,0.40307 -0.81649,0.62528 0.60978,0.17053 0.96118,0.65112 0.35657,0.47542 0.35657,1.13688 0,1.01285 -0.65629,1.59163 -0.65629,0.57877 -1.85518,0.57877 z m 0.99218,-3.51915 v 2.70783 h 1.63814 q 0.69246,0 1.09037,-0.35656 0.40307,-0.36174 0.40307,-0.99219 0,-1.35908 -1.47794,-1.35908 z m 0,-0.79582 h 1.49861 q 0.65112,0 1.0387,-0.32556 0.39274,-0.32556 0.39274,-0.88366 0,-0.62012 -0.36174,-0.89917 -0.36173,-0.28422 -1.1007,-0.28422 h -1.46761 z"
         style="font-style:normal;font-variant:normal;font-weight:normal;font-stretch:normal;font-family:Roboto;-inkscape-font-specification:Roboto;text-align:end;text-anchor:end;stroke-width:0.264583"
         id="path947" />
      <path
         d="m 551.11151,249.50653 h -0.99219 v -7.52406 h 0.99219 z"
         style="font-style:normal;font-variant:normal;font-weight:normal;font-stretch:normal;font-family:Roboto;-inkscape-font-specification:Roboto;text-align:end;text-anchor:end;stroke-width:0.264583"
         id="path949" />
      <path
         d="m 553.92269,248.69521 h 3.56567 v 0.81132 h -4.56302 v -7.52406 h 0.99735 z"
         style="font-style:normal;font-variant:normal;font-weight:normal;font-stretch:normal;font-family:Roboto;-inkscape-font-specification:Roboto;text-align:end;text-anchor:end;stroke-width:0.264583"
         id="path951" />
      <path
         d="m 559.6846,249.50653 h -0.99219 v -7.52406 h 0.99219 z"
         style="font-style:normal;font-variant:normal;font-weight:normal;font-stretch:normal;font-family:Roboto;-inkscape-font-specification:Roboto;text-align:end;text-anchor:end;stroke-width:0.264583"
         id="path953" />
      <path
         d="m 561.49843,249.50653 v -7.52406 h 2.1239 q 0.98185,0 1.73632,0.43408 0.75447,0.43408 1.16272,1.23506 0.41341,0.80098 0.41857,1.83968 v 0.48058 q 0,1.06454 -0.41341,1.86552 -0.40824,0.80098 -1.17305,1.22989 -0.75964,0.42892 -1.77249,0.43925 z m 0.99219,-6.70758 v 5.89626 h 1.04386 q 1.14721,0 1.78283,-0.71313 0.64078,-0.71313 0.64078,-2.03088 v -0.43924 q 0,-1.28158 -0.60461,-1.98954 -0.59944,-0.71313 -1.70532,-0.72347 z"
         style="font-style:normal;font-variant:normal;font-weight:normal;font-stretch:normal;font-family:Roboto;-inkscape-font-specification:Roboto;text-align:end;text-anchor:end;stroke-width:0.264583"
         id="path955" />
      <path
         d="m 572.48481,247.54283 h -3.15225 l -0.70797,1.9637 h -1.02319 l 2.8732,-7.52406 h 0.86816 l 2.87837,7.52406 h -1.01802 z m -2.85253,-0.81648 h 2.55797 l -1.28157,-3.51916 z"
         style="font-style:normal;font-variant:normal;font-weight:normal;font-stretch:normal;font-family:Roboto;-inkscape-font-specification:Roboto;text-align:end;text-anchor:end;stroke-width:0.264583"
         id="path957" />
      <path
         d="m 575.23398,249.50653 v -7.52406 h 2.1239 q 0.98185,0 1.73632,0.43408 0.75447,0.43408 1.16271,1.23506 0.41342,0.80098 0.41858,1.83968 v 0.48058 q 0,1.06454 -0.41341,1.86552 -0.40824,0.80098 -1.17305,1.22989 -0.75964,0.42892 -1.77249,0.43925 z m 0.99219,-6.70758 v 5.89626 h 1.04386 q 1.14721,0 1.78283,-0.71313 0.64078,-0.71313 0.64078,-2.03088 v -0.43924 q 0,-1.28158 -0.60461,-1.98954 -0.59944,-0.71313 -1.70532,-0.72347 z"
         style="font-style:normal;font-variant:normal;font-weight:normal;font-stretch:normal;font-family:Roboto;-inkscape-font-specification:Roboto;text-align:end;text-anchor:end;stroke-width:0.264583"
         id="path959" />
      <path
         d="m 435.34633,262.83901 v -7.52407 h 2.1239 q 0.98184,0 1.73632,0.43408 0.75447,0.43408 1.16271,1.23506 0.41341,0.80099 0.41858,1.83968 v 0.48059 q 0,1.06453 -0.41341,1.86551 -0.40824,0.80098 -1.17305,1.2299 -0.75964,0.42891 -1.7725,0.43925 z m 0.99218,-6.70758 v 5.89626 h 1.04387 q 1.14721,0 1.78283,-0.71313 0.64078,-0.71314 0.64078,-2.03088 v -0.43925 q 0,-1.28157 -0.60461,-1.98954 -0.59944,-0.71313 -1.70532,-0.72346 z"
         style="font-style:normal;font-variant:normal;font-weight:normal;font-stretch:normal;font-family:Roboto;-inkscape-font-specification:Roboto;text-align:end;text-anchor:end;stroke-width:0.264583"
         id="path961" />
      <path
         d="m 446.53941,259.36119 h -3.26077 v 2.6665 h 3.78787 v 0.81132 h -4.78006 v -7.52407 h 4.72838 v 0.81649 h -3.73619 v 2.41844 h 3.26077 z"
         style="font-style:normal;font-variant:normal;font-weight:normal;font-stretch:normal;font-family:Roboto;-inkscape-font-specification:Roboto;text-align:end;text-anchor:end;stroke-width:0.264583"
         id="path963" />
      <path
         d="m 451.91891,262.02769 h 3.56566 v 0.81132 h -4.56301 v -7.52407 h 0.99735 z"
         style="font-style:normal;font-variant:normal;font-weight:normal;font-stretch:normal;font-family:Roboto;-inkscape-font-specification:Roboto;text-align:end;text-anchor:end;stroke-width:0.264583"
         id="path965" />
      <path
         d="m 460.86924,260.87531 h -3.15225 l -0.70797,1.9637 h -1.02319 l 2.8732,-7.52407 h 0.86816 l 2.87837,7.52407 h -1.01802 z m -2.85253,-0.81649 h 2.55798 l -1.28158,-3.51915 z"
         style="font-style:normal;font-variant:normal;font-weight:normal;font-stretch:normal;font-family:Roboto;-inkscape-font-specification:Roboto;text-align:end;text-anchor:end;stroke-width:0.264583"
         id="path967" />
      <path
         d="m 470.38801,259.51622 h -3.15742 v 3.32279 h -0.99219 v -7.52407 h 4.6612 v 0.81649 h -3.66901 v 2.57347 h 3.15742 z"
         style="font-style:normal;font-variant:normal;font-weight:normal;font-stretch:normal;font-family:Roboto;-inkscape-font-specification:Roboto;text-align:end;text-anchor:end;stroke-width:0.264583"
         id="path969" />
      <path
         d="m 474.84767,259.79527 h -1.76733 v 3.04374 h -0.99735 v -7.52407 h 2.49079 q 1.27124,0 1.95337,0.57877 0.68729,0.57878 0.68729,1.68465 0,0.7028 -0.3824,1.22473 -0.37724,0.52193 -1.0542,0.78031 l 1.76733,3.19359 v 0.062 h -1.06453 z m -1.76733,-0.81131 h 1.52445 q 0.73897,0 1.17305,-0.38241 0.43925,-0.3824 0.43925,-1.02319 0,-0.69763 -0.41858,-1.0697 -0.41341,-0.37207 -1.19889,-0.37723 h -1.51928 z"
         style="font-style:normal;font-variant:normal;font-weight:normal;font-stretch:normal;font-family:Roboto;-inkscape-font-specification:Roboto;text-align:end;text-anchor:end;stroke-width:0.264583"
         id="path971" />
      <path
         d="m 482.85749,259.36119 h -3.26077 v 2.6665 h 3.78787 v 0.81132 h -4.78006 v -7.52407 h 4.72838 v 0.81649 h -3.73619 v 2.41844 h 3.26077 z"
         style="font-style:normal;font-variant:normal;font-weight:normal;font-stretch:normal;font-family:Roboto;-inkscape-font-specification:Roboto;text-align:end;text-anchor:end;stroke-width:0.264583"
         id="path973" />
      <path
         d="m 490.15418,260.45156 q -0.13952,1.19372 -0.88366,1.84484 -0.73897,0.64596 -1.96887,0.64596 -1.33325,0 -2.1394,-0.95601 -0.80098,-0.95601 -0.80098,-2.55798 v -0.72347 q 0,-1.04902 0.37207,-1.84484 0.37724,-0.79581 1.06453,-1.21956 0.6873,-0.42891 1.59163,-0.42891 1.19889,0 1.92236,0.67179 0.72347,0.66662 0.84232,1.85001 h -0.99735 q -0.12919,-0.89917 -0.56327,-1.30224 -0.42891,-0.40308 -1.20406,-0.40308 -0.95084,0 -1.49344,0.7028 -0.53744,0.7028 -0.53744,1.99987 v 0.72864 q 0,1.22472 0.5116,1.94819 0.51159,0.72347 1.43143,0.72347 0.82682,0 1.26607,-0.37207 0.44442,-0.37724 0.58911,-1.30741 z"
         style="font-style:normal;font-variant:normal;font-weight:normal;font-stretch:normal;font-family:Roboto;-inkscape-font-specification:Roboto;text-align:end;text-anchor:end;stroke-width:0.264583"
         id="path975" />
      <path
         d="m 496.80491,255.31494 v 5.11595 q -0.005,1.06453 -0.67179,1.74149 -0.66145,0.67696 -1.79833,0.75964 l -0.26355,0.0103 q -1.23506,0 -1.96887,-0.66663 -0.7338,-0.66662 -0.74413,-1.8345 v -5.12629 h 0.98184 v 5.09528 q 0,0.81649 0.44959,1.27124 0.44958,0.44958 1.28157,0.44958 0.84232,0 1.28674,-0.44958 0.44958,-0.44959 0.44958,-1.26607 v -5.10045 z"
         style="font-style:normal;font-variant:normal;font-weight:normal;font-stretch:normal;font-family:Roboto;-inkscape-font-specification:Roboto;text-align:end;text-anchor:end;stroke-width:0.264583"
         id="path977" />
      <path
         d="m 502.62366,259.36119 h -3.26077 v 2.6665 h 3.78787 v 0.81132 h -4.78005 v -7.52407 h 4.72838 v 0.81649 h -3.7362 v 2.41844 h 3.26077 z"
         style="font-style:normal;font-variant:normal;font-weight:normal;font-stretch:normal;font-family:Roboto;-inkscape-font-specification:Roboto;text-align:end;text-anchor:end;stroke-width:0.264583"
         id="path979" />
      <path
         d="m 510.16839,262.83901 h -0.99735 l -3.78787,-5.79808 v 5.79808 h -0.99735 v -7.52407 h 0.99735 l 3.79821,5.82392 v -5.82392 h 0.98701 z"
         style="font-style:normal;font-variant:normal;font-weight:normal;font-stretch:normal;font-family:Roboto;-inkscape-font-specification:Roboto;text-align:end;text-anchor:end;stroke-width:0.264583"
         id="path981" />
      <path
         d="m 517.46509,260.45156 q -0.13953,1.19372 -0.88367,1.84484 -0.73897,0.64596 -1.96886,0.64596 -1.33325,0 -2.1394,-0.95601 -0.80098,-0.95601 -0.80098,-2.55798 v -0.72347 q 0,-1.04902 0.37207,-1.84484 0.37723,-0.79581 1.06453,-1.21956 0.68729,-0.42891 1.59163,-0.42891 1.19889,0 1.92235,0.67179 0.72347,0.66662 0.84233,1.85001 h -0.99735 q -0.1292,-0.89917 -0.56328,-1.30224 -0.42891,-0.40308 -1.20405,-0.40308 -0.95085,0 -1.49345,0.7028 -0.53743,0.7028 -0.53743,1.99987 v 0.72864 q 0,1.22472 0.51159,1.94819 0.5116,0.72347 1.43144,0.72347 0.82682,0 1.26607,-0.37207 0.44441,-0.37724 0.58911,-1.30741 z"
         style="font-style:normal;font-variant:normal;font-weight:normal;font-stretch:normal;font-family:Roboto;-inkscape-font-specification:Roboto;text-align:end;text-anchor:end;stroke-width:0.264583"
         id="path983" />
      <path
         d="m 519.88353,262.83901 h -0.99218 v -7.52407 h 0.99218 z"
         style="font-style:normal;font-variant:normal;font-weight:normal;font-stretch:normal;font-family:Roboto;-inkscape-font-specification:Roboto;text-align:end;text-anchor:end;stroke-width:0.264583"
         id="path985" />
      <path
         d="m 525.94516,260.87531 h -3.15225 l -0.70796,1.9637 h -1.02319 l 2.8732,-7.52407 h 0.86816 l 2.87837,7.52407 h -1.01803 z m -2.85253,-0.81649 h 2.55798 l -1.28157,-3.51915 z"
         style="font-style:normal;font-variant:normal;font-weight:normal;font-stretch:normal;font-family:Roboto;-inkscape-font-specification:Roboto;text-align:end;text-anchor:end;stroke-width:0.264583"
         id="path987" />
      <path
         d="m 536.84885,260.45156 q -0.13952,1.19372 -0.88366,1.84484 -0.73897,0.64596 -1.96887,0.64596 -1.33324,0 -2.13939,-0.95601 -0.80099,-0.95601 -0.80099,-2.55798 v -0.72347 q 0,-1.04902 0.37207,-1.84484 0.37724,-0.79581 1.06453,-1.21956 0.6873,-0.42891 1.59163,-0.42891 1.19889,0 1.92236,0.67179 0.72347,0.66662 0.84232,1.85001 h -0.99735 q -0.12919,-0.89917 -0.56327,-1.30224 -0.42891,-0.40308 -1.20406,-0.40308 -0.95084,0 -1.49344,0.7028 -0.53743,0.7028 -0.53743,1.99987 v 0.72864 q 0,1.22472 0.51159,1.94819 0.5116,0.72347 1.43143,0.72347 0.82682,0 1.26607,-0.37207 0.44442,-0.37724 0.58911,-1.30741 z"
         style="font-style:normal;font-variant:normal;font-weight:normal;font-stretch:normal;font-family:Roboto;-inkscape-font-specification:Roboto;text-align:end;text-anchor:end;stroke-width:0.264583"
         id="path989" />
      <path
         d="m 542.35755,260.87531 h -3.15225 l -0.70797,1.9637 h -1.02319 l 2.8732,-7.52407 h 0.86816 l 2.87837,7.52407 h -1.01802 z m -2.85253,-0.81649 h 2.55797 l -1.28157,-3.51915 z"
         style="font-style:normal;font-variant:normal;font-weight:normal;font-stretch:normal;font-family:Roboto;-inkscape-font-specification:Roboto;text-align:end;text-anchor:end;stroke-width:0.264583"
         id="path991" />
      <path
         d="m 547.86623,259.79527 h -1.76732 v 3.04374 h -0.99736 v -7.52407 h 2.4908 q 1.27124,0 1.95336,0.57877 0.6873,0.57878 0.6873,1.68465 0,0.7028 -0.38241,1.22473 -0.37723,0.52193 -1.05419,0.78031 l 1.76733,3.19359 v 0.062 h -1.06454 z m -1.76732,-0.81131 h 1.52445 q 0.73897,0 1.17305,-0.38241 0.43925,-0.3824 0.43925,-1.02319 0,-0.69763 -0.41858,-1.0697 -0.41341,-0.37207 -1.19889,-0.37723 h -1.51928 z"
         style="font-style:normal;font-variant:normal;font-weight:normal;font-stretch:normal;font-family:Roboto;-inkscape-font-specification:Roboto;text-align:end;text-anchor:end;stroke-width:0.264583"
         id="path993" />
      <path
         d="m 551.6231,262.83901 v -7.52407 h 2.1239 q 0.98185,0 1.73632,0.43408 0.75447,0.43408 1.16272,1.23506 0.41341,0.80099 0.41857,1.83968 v 0.48059 q 0,1.06453 -0.41341,1.86551 -0.40824,0.80098 -1.17305,1.2299 -0.75964,0.42891 -1.77249,0.43925 z m 0.99219,-6.70758 v 5.89626 h 1.04386 q 1.14721,0 1.78283,-0.71313 0.64078,-0.71314 0.64078,-2.03088 v -0.43925 q 0,-1.28157 -0.60461,-1.98954 -0.59944,-0.71313 -1.70532,-0.72346 z"
         style="font-style:normal;font-variant:normal;font-weight:normal;font-stretch:normal;font-family:Roboto;-inkscape-font-specification:Roboto;text-align:end;text-anchor:end;stroke-width:0.264583"
         id="path995" />
      <path
         d="m 559.62775,262.83901 h -0.99218 v -7.52407 h 0.99218 z"
         style="font-style:normal;font-variant:normal;font-weight:normal;font-stretch:normal;font-family:Roboto;-inkscape-font-specification:Roboto;text-align:end;text-anchor:end;stroke-width:0.264583"
         id="path997" />
      <path
         d="m 565.68938,260.87531 h -3.15225 l -0.70797,1.9637 h -1.02319 l 2.8732,-7.52407 h 0.86817 l 2.87836,7.52407 h -1.01802 z m -2.85253,-0.81649 h 2.55798 l -1.28158,-3.51915 z"
         style="font-style:normal;font-variant:normal;font-weight:normal;font-stretch:normal;font-family:Roboto;-inkscape-font-specification:Roboto;text-align:end;text-anchor:end;stroke-width:0.264583"
         id="path999" />
      <path
         d="m 573.91624,260.45156 q -0.13952,1.19372 -0.88366,1.84484 -0.73897,0.64596 -1.96887,0.64596 -1.33324,0 -2.13939,-0.95601 -0.80099,-0.95601 -0.80099,-2.55798 v -0.72347 q 0,-1.04902 0.37207,-1.84484 0.37724,-0.79581 1.06453,-1.21956 0.6873,-0.42891 1.59163,-0.42891 1.19889,0 1.92236,0.67179 0.72347,0.66662 0.84232,1.85001 h -0.99735 q -0.12919,-0.89917 -0.56327,-1.30224 -0.42891,-0.40308 -1.20406,-0.40308 -0.95084,0 -1.49344,0.7028 -0.53743,0.7028 -0.53743,1.99987 v 0.72864 q 0,1.22472 0.51159,1.94819 0.5116,0.72347 1.43143,0.72347 0.82682,0 1.26607,-0.37207 0.44442,-0.37724 0.58911,-1.30741 z"
         style="font-style:normal;font-variant:normal;font-weight:normal;font-stretch:normal;font-family:Roboto;-inkscape-font-specification:Roboto;text-align:end;text-anchor:end;stroke-width:0.264583"
         id="path1001" />
      <path
         d="m 579.42493,260.87531 h -3.15225 l -0.70797,1.9637 h -1.02319 l 2.8732,-7.52407 h 0.86817 l 2.87836,7.52407 h -1.01802 z m -2.85253,-0.81649 h 2.55798 l -1.28158,-3.51915 z"
         style="font-style:normal;font-variant:normal;font-weight:normal;font-stretch:normal;font-family:Roboto;-inkscape-font-specification:Roboto;text-align:end;text-anchor:end;stroke-width:0.264583"
         id="path1003" />
    </g>
  </g>
</svg>
